<?xml version="1.0" encoding="UTF-8"?> <svg xmlns="http://www.w3.org/2000/svg" width="154" height="30" viewBox="0 0 154 30" fill="none"><g clip-path="url(#clip0)"><path d="M62.0288 18.3088C62.2824 18.3088 62.4976 18.401 62.6743 18.5854C62.8588 18.7622 62.951 18.9773 62.951 19.2309C62.951 19.4845 62.8549 19.7113 62.6628 19.9111C61.4717 20.9485 60.0692 21.4673 58.4553 21.4673C56.6724 21.4673 55.1508 20.8371 53.8905 19.5768C52.6302 18.3164 52 16.7948 52 15.0119C52 13.229 52.6302 11.7074 53.8905 10.4471C55.1508 9.1868 56.6724 8.55664 58.4553 8.55664C60.0692 8.55664 61.4717 9.07537 62.6628 10.1128C62.878 10.3049 62.9856 10.5431 62.9856 10.8275C62.9856 11.0811 62.8934 11.3001 62.7089 11.4845C62.5322 11.6613 62.317 11.7497 62.0634 11.7497C61.8405 11.7497 61.6446 11.6805 61.4755 11.5422C60.6148 10.7814 59.6081 10.401 58.4553 10.401C57.1796 10.401 56.0922 10.8505 55.1931 11.7497C54.2939 12.6488 53.8444 13.7362 53.8444 15.0119C53.8444 16.2876 54.2939 17.375 55.1931 18.2742C56.0922 19.1733 57.1796 19.6229 58.4553 19.6229C59.6081 19.6229 60.6109 19.2463 61.464 18.4932C61.6254 18.3702 61.8136 18.3088 62.0288 18.3088Z" fill="white"></path><path d="M77.8217 15.0119C77.8217 16.7948 77.1916 18.3164 75.9312 19.5768C74.6709 20.8371 73.1493 21.4673 71.3664 21.4673C69.5835 21.4673 68.0619 20.8371 66.8015 19.5768C65.5412 18.3164 64.9111 16.7948 64.9111 15.0119C64.9111 13.229 65.5412 11.7074 66.8015 10.4471C68.0619 9.1868 69.5835 8.55664 71.3664 8.55664C73.1493 8.55664 74.6709 9.1868 75.9312 10.4471C77.1916 11.7074 77.8217 13.229 77.8217 15.0119ZM71.3664 10.401C70.0907 10.401 69.0033 10.8505 68.1041 11.7497C67.205 12.6488 66.7554 13.7362 66.7554 15.0119C66.7554 16.2876 67.205 17.375 68.1041 18.2742C69.0033 19.1733 70.0907 19.6229 71.3664 19.6229C72.6421 19.6229 73.7295 19.1733 74.6286 18.2742C75.5278 17.375 75.9773 16.2876 75.9773 15.0119C75.9773 13.7362 75.5278 12.6488 74.6286 11.7497C73.7295 10.8505 72.6421 10.401 71.3664 10.401Z" fill="white"></path><path d="M90.7323 15.0115C90.7323 13.7358 90.2827 12.6484 89.3836 11.7493C88.4844 10.8501 87.397 10.4006 86.1213 10.4006C84.8456 10.4006 83.7582 10.8501 82.8591 11.7493C81.9599 12.6484 81.5104 13.7358 81.5104 15.0115C81.5104 16.2872 81.9599 17.3746 82.8591 18.2738C83.7582 19.1729 84.8456 19.6225 86.1213 19.6225C87.397 19.6225 88.4844 19.1729 89.3836 18.2738C90.2827 17.3746 90.7323 16.2872 90.7323 15.0115ZM90.7323 3.92219C90.7323 3.66859 90.8207 3.45341 90.9974 3.27666C91.1818 3.09222 91.4009 3 91.6545 3C91.9081 3 92.1233 3.09222 92.3 3.27666C92.4844 3.45341 92.5767 3.66859 92.5767 3.92219V15.0115C92.5767 16.7944 91.9465 18.316 90.6862 19.5764C89.4258 20.8367 87.9042 21.4669 86.1213 21.4669C84.3384 21.4669 82.8168 20.8367 81.5565 19.5764C80.2962 18.316 79.666 16.7944 79.666 15.0115C79.666 13.2286 80.2962 11.707 81.5565 10.4467C82.8168 9.18636 84.3384 8.5562 86.1213 8.5562C87.9042 8.5562 89.4258 9.18636 90.6862 10.4467C90.7015 10.4621 90.7169 10.4774 90.7323 10.4928V3.92219Z" fill="white"></path><path d="M105.406 14.0897C105.237 13.206 104.815 12.426 104.138 11.7497C103.239 10.8505 102.152 10.401 100.876 10.401C99.6006 10.401 98.5132 10.8505 97.614 11.7497C96.9378 12.426 96.5151 13.206 96.346 14.0897H105.406ZM104.427 18.3318C104.68 18.3318 104.895 18.424 105.072 18.6085C105.256 18.7852 105.349 19.0004 105.349 19.254C105.349 19.5076 105.26 19.7266 105.084 19.9111C103.892 20.9485 102.49 21.4673 100.876 21.4673C99.0934 21.4673 97.5718 20.8371 96.3114 19.5768C95.0511 18.3164 94.4209 16.7948 94.4209 15.0119C94.4209 13.229 95.0511 11.7074 96.3114 10.4471C97.5718 9.1868 99.0934 8.55664 100.876 8.55664C102.659 8.55664 104.181 9.1868 105.441 10.4471C106.701 11.7074 107.331 13.229 107.331 15.0119C107.331 15.2655 107.239 15.4845 107.055 15.669C106.878 15.8457 106.663 15.9341 106.409 15.9341H96.346C96.5151 16.8179 96.9378 17.5979 97.614 18.2742C98.5132 19.1733 99.6006 19.6229 100.876 19.6229C102.029 19.6229 103.02 19.2578 103.85 18.5278C104.019 18.3971 104.211 18.3318 104.427 18.3318Z" fill="white"></path><path d="M115.631 10.401C114.355 10.401 113.268 10.8505 112.369 11.7497C111.47 12.6488 111.02 13.7362 111.02 15.0119C111.02 16.2876 111.47 17.375 112.369 18.2742C113.268 19.1733 114.355 19.6229 115.631 19.6229C116.907 19.6229 117.994 19.1733 118.893 18.2742C119.792 17.375 120.242 16.2876 120.242 15.0119C120.242 13.7362 119.792 12.6488 118.893 11.7497C117.994 10.8505 116.907 10.401 115.631 10.401ZM120.242 19.5307C120.227 19.546 120.211 19.5614 120.196 19.5768C118.936 20.8371 117.414 21.4673 115.631 21.4673C113.848 21.4673 112.327 20.8371 111.066 19.5768C109.806 18.3164 109.176 16.7948 109.176 15.0119C109.176 13.229 109.806 11.7074 111.066 10.4471C112.327 9.1868 113.848 8.55664 115.631 8.55664C117.414 8.55664 118.936 9.1868 120.196 10.4471C121.456 11.7074 122.086 13.229 122.086 15.0119V21.4673C122.086 22.8121 121.602 23.9802 120.634 24.9716C119.281 26.3241 117.648 27.0004 115.735 27.0004C113.821 27.0004 112.192 26.3241 110.847 24.9716C110.348 24.4797 109.94 23.9456 109.625 23.3693C109.533 23.2309 109.487 23.0696 109.487 22.8851C109.487 22.6315 109.575 22.4125 109.752 22.2281C109.937 22.0513 110.156 21.9629 110.409 21.9629C110.663 21.9629 110.882 22.0513 111.066 22.2281C111.143 22.3126 111.208 22.4048 111.262 22.5047C111.493 22.9197 111.789 23.3078 112.15 23.669C113.141 24.6603 114.336 25.156 115.735 25.156C117.134 25.156 118.329 24.6603 119.32 23.669C119.935 22.9312 120.242 22.1973 120.242 21.4673V19.5307Z" fill="white"></path><path d="M123.931 9.47883C123.931 9.22522 124.019 9.01005 124.196 8.83329C124.38 8.64885 124.599 8.55664 124.853 8.55664C125.107 8.55664 125.322 8.64885 125.499 8.83329C125.683 9.01005 125.775 9.22522 125.775 9.47883V10.4932C127.066 9.20217 128.603 8.55664 130.386 8.55664C131.285 8.55664 132.111 8.71033 132.865 9.01773C133.003 9.07153 133.13 9.15222 133.245 9.25981C133.422 9.44424 133.51 9.66326 133.51 9.91687C133.51 10.1704 133.418 10.3894 133.233 10.5739C133.057 10.7506 132.841 10.839 132.588 10.839C132.442 10.839 132.307 10.8083 132.184 10.7468C131.639 10.5162 131.039 10.401 130.386 10.401C129.11 10.401 128.023 10.8505 127.124 11.7497C126.225 12.6488 125.775 13.7362 125.775 15.0119V20.5451C125.775 20.7987 125.683 21.0177 125.499 21.2021C125.322 21.3789 125.107 21.4673 124.853 21.4673C124.599 21.4673 124.38 21.3789 124.196 21.2021C124.019 21.0177 123.931 20.7987 123.931 20.5451V9.47883Z" fill="white"></path><path d="M137.994 5.78946C137.994 6.10454 137.879 6.37735 137.648 6.6079C137.426 6.83076 137.157 6.94219 136.841 6.94219C136.526 6.94219 136.254 6.83076 136.023 6.6079C135.8 6.37735 135.689 6.10454 135.689 5.78946C135.689 5.47437 135.8 5.2054 136.023 4.98254C136.254 4.75199 136.526 4.63672 136.841 4.63672C137.157 4.63672 137.426 4.75199 137.648 4.98254C137.879 5.2054 137.994 5.47437 137.994 5.78946ZM135.919 9.47822C135.919 9.22461 136.008 9.00944 136.184 8.83268C136.369 8.64824 136.588 8.55603 136.841 8.55603C137.095 8.55603 137.31 8.64824 137.487 8.83268C137.671 9.00944 137.764 9.22461 137.764 9.47822V20.5445C137.764 20.7981 137.671 21.0171 137.487 21.2015C137.31 21.3783 137.095 21.4667 136.841 21.4667C136.588 21.4667 136.369 21.3783 136.184 21.2015C136.008 21.0171 135.919 20.7981 135.919 20.5445V9.47822Z" fill="white"></path><path d="M142.375 15.0119C142.375 16.2876 142.824 17.375 143.723 18.2742C144.622 19.1733 145.71 19.6229 146.986 19.6229C148.261 19.6229 149.349 19.1733 150.248 18.2742C151.147 17.375 151.597 16.2876 151.597 15.0119C151.597 13.7362 151.147 12.6488 150.248 11.7497C149.349 10.8505 148.261 10.401 146.986 10.401C145.71 10.401 144.622 10.8505 143.723 11.7497C142.824 12.6488 142.375 13.7362 142.375 15.0119ZM142.375 26.0782C142.375 26.3318 142.282 26.547 142.098 26.7237C141.921 26.9082 141.706 27.0004 141.452 27.0004C141.199 27.0004 140.98 26.9082 140.795 26.7237C140.619 26.547 140.53 26.3318 140.53 26.0782V15.0119C140.53 13.229 141.16 11.7074 142.421 10.4471C143.681 9.1868 145.203 8.55664 146.986 8.55664C148.768 8.55664 150.29 9.1868 151.55 10.4471C152.811 11.7074 153.441 13.229 153.441 15.0119C153.441 16.7948 152.811 18.3164 151.55 19.5768C150.29 20.8371 148.768 21.4673 146.986 21.4673C145.203 21.4673 143.681 20.8371 142.421 19.5768C142.405 19.5614 142.39 19.546 142.375 19.5307V26.0782Z" fill="white"></path><path d="M15 2.95795e-06L0 15L4.2857 19.2857L19.2857 4.28571L15 2.95795e-06Z" fill="#3DA5D9"></path><path d="M4.2857 10.7143L0 15L15 30L19.2857 25.7143L4.2857 10.7143Z" fill="#3DA5D9"></path><path d="M4.2857 10.7143L0 15L4.2857 19.2857L8.57141 15L4.2857 10.7143Z" fill="#3DA5D9"></path><path d="M28.1826 30L43.1826 15L38.8969 10.7143L23.8969 25.7143L28.1826 30Z" fill="white"></path><path d="M38.8969 19.2857L43.1826 15L28.1826 2.95795e-06L23.8969 4.28571L38.8969 19.2857Z" fill="white"></path><path d="M38.8969 19.2857L43.1826 15L38.8969 10.7143L34.6112 15L38.8969 19.2857Z" fill="white"></path></g><defs><clipPath id="clip0"><rect width="154" height="30" fill="white"></rect></clipPath></defs></svg> 