<?xml version="1.0" encoding="UTF-8"?> <svg xmlns="http://www.w3.org/2000/svg" width="69" height="69" viewBox="0 0 69 69" fill="none"><path d="M34.5 69C27.6766 69 21.0063 66.9766 15.3328 63.1857C9.65934 59.3948 5.23739 54.0066 2.62617 47.7026C0.0149485 41.3985 -0.668267 34.4617 0.662923 27.7694C1.99411 21.0771 5.27992 14.9297 10.1048 10.1048C14.9297 5.27992 21.0771 1.99411 27.7694 0.662923C34.4617 -0.668267 41.3985 0.0149485 47.7026 2.62617C54.0066 5.23739 59.3948 9.65934 63.1857 15.3328C66.9766 21.0063 69 27.6766 69 34.5C68.9912 43.6473 65.3535 52.4173 58.8854 58.8854C52.4173 65.3535 43.6473 68.9912 34.5 69ZM34.5 3.33496C28.3361 3.33496 22.3107 5.16276 17.1856 8.58722C12.0606 12.0117 8.06607 16.879 5.70726 22.5737C3.34845 28.2683 2.73128 34.5346 3.93379 40.58C5.1363 46.6254 8.10448 52.1785 12.463 56.537C16.8215 60.8955 22.3746 63.8637 28.42 65.0662C34.4654 66.2687 40.7317 65.6516 46.4264 63.2928C52.121 60.934 56.9883 56.9394 60.4128 51.8144C63.8373 46.6893 65.6651 40.6639 65.6651 34.5C65.6518 26.2386 62.3641 18.3193 56.5224 12.4776C50.6807 6.63589 42.7614 3.34819 34.5 3.33496V3.33496Z" fill="#1D2951"></path><path d="M38.385 34.5038H37.2003V33.3538C37.1408 32.4478 36.7532 31.5991 36.1157 30.9793C35.4782 30.3594 34.6385 30.0146 33.7662 30.0146C32.8939 30.0146 32.0542 30.3594 31.4167 30.9793C30.7792 31.5991 30.3916 32.4478 30.3321 33.3538V34.4705H29.1474C28.9351 34.4705 28.7315 34.5583 28.5814 34.7146C28.4313 34.8709 28.3469 35.0828 28.3469 35.3039V41.6873C28.3469 41.9084 28.4313 42.1203 28.5814 42.2766C28.7315 42.4329 28.9351 42.5207 29.1474 42.5207H38.385C38.5973 42.5207 38.8009 42.4329 38.951 42.2766C39.1012 42.1203 39.1855 41.9084 39.1855 41.6873V35.3372C39.1855 35.1162 39.1012 34.9042 38.951 34.7479C38.8009 34.5916 38.5973 34.5038 38.385 34.5038ZM31.9811 33.3872C32.0238 32.9118 32.2354 32.4701 32.5745 32.1487C32.9135 31.8272 33.3556 31.649 33.8142 31.649C34.2728 31.649 34.7149 31.8272 35.054 32.1487C35.393 32.4701 35.6046 32.9118 35.6473 33.3872V34.5038H31.9331L31.9811 33.3872ZM37.6325 40.7706H29.9479V36.1705H37.5845L37.6325 40.7706Z" fill="#1D2951"></path><path d="M49.1885 31.8657C49.1456 30.6555 48.7459 29.486 48.0408 28.5074C47.3357 27.5288 46.3574 26.786 45.2317 26.3743C44.4594 26.1478 43.6439 26.1168 42.857 26.2841C42.0701 26.4514 41.3359 26.8118 40.719 27.3336C40.0829 25.8866 39.1908 24.5693 38.0867 23.4467C36.5087 21.7905 34.466 20.6644 32.2349 20.2207C30.0038 19.777 27.6918 20.037 25.6115 20.9657C23.6592 21.9052 22.004 23.3762 20.8316 25.2137C19.6591 27.0513 19.0157 29.1828 18.9733 31.3695C18.9733 31.6176 18.9733 31.8491 18.9733 32.0807C17.2903 32.5611 15.8179 33.6044 14.7964 35.0403C13.7749 36.4762 13.2646 38.2199 13.3488 39.9869C13.3488 40.2019 13.3488 40.4335 13.3488 40.6485C13.5184 42.7645 14.475 44.7367 16.0256 46.1672C17.5762 47.5976 19.6054 48.38 21.7038 48.3563H48.2728C48.2728 48.3563 55.8593 47.6947 55.8593 39.9869C55.8902 38.0502 55.2344 36.1663 54.0107 34.6765C52.7869 33.1867 51.0762 32.1896 49.1885 31.8657V31.8657ZM48.2238 46.7519H21.7201C20.0351 46.7785 18.4032 46.1558 17.1553 45.0101C15.9074 43.8644 15.137 42.2815 15.0002 40.5824C15.0002 40.4004 15.0002 40.2185 15.0002 40.0365C14.9167 38.5225 15.3772 37.0289 16.2966 35.8313C17.2161 34.6336 18.5326 33.8126 20.0033 33.5197C20.1948 33.4658 20.3609 33.3446 20.4718 33.1778C20.5828 33.011 20.6312 32.8097 20.6083 32.61C20.5835 32.2079 20.5835 31.8046 20.6083 31.4025C20.6588 29.5425 21.211 27.7318 22.2052 26.1663C23.1994 24.6008 24.5978 23.34 26.2491 22.5204C27.4858 21.9672 28.821 21.6745 30.1732 21.6604C32.7564 21.7194 35.2124 22.8071 37.0076 24.6872C38.2212 25.9471 39.1379 27.468 39.689 29.1365C39.7392 29.2767 39.8258 29.4006 39.9399 29.495C40.0539 29.5894 40.1911 29.6509 40.3369 29.673C40.4826 29.695 40.6316 29.6768 40.7679 29.6202C40.9043 29.5636 41.023 29.4708 41.1115 29.3516C41.5128 28.7663 42.0838 28.3216 42.7457 28.0786C43.4076 27.8357 44.1277 27.8066 44.8066 27.9953C45.6812 28.3511 46.4265 28.9704 46.9412 29.7693C47.456 30.5682 47.7154 31.508 47.6842 32.4611C47.651 32.6715 47.7011 32.8866 47.8234 33.0599C47.9458 33.2333 48.1308 33.3509 48.3382 33.3874C49.9809 33.5527 51.5043 34.3299 52.6123 35.5678C53.7203 36.8058 54.3339 38.4162 54.3339 40.0862C54.3339 41.7562 53.7203 43.3665 52.6123 44.6045C51.5043 45.8425 49.9809 46.6196 48.3382 46.7849L48.2238 46.7519Z" fill="#1D2951"></path></svg> 