<?xml version="1.0" encoding="UTF-8"?> <svg xmlns="http://www.w3.org/2000/svg" width="69" height="69" viewBox="0 0 69 69" fill="none"><path d="M34.5 69C27.6766 69 21.0063 66.9766 15.3328 63.1857C9.65934 59.3948 5.23739 54.0066 2.62617 47.7026C0.0149485 41.3985 -0.668267 34.4617 0.662923 27.7694C1.99411 21.0771 5.27992 14.9297 10.1048 10.1048C14.9297 5.27992 21.0771 1.99411 27.7694 0.662923C34.4617 -0.668267 41.3985 0.0149485 47.7026 2.62617C54.0066 5.23739 59.3948 9.65934 63.1857 15.3328C66.9766 21.0063 69 27.6766 69 34.5C68.9912 43.6473 65.3535 52.4173 58.8854 58.8854C52.4173 65.3535 43.6473 68.9912 34.5 69ZM34.5 3.33496C28.3361 3.33496 22.3107 5.16276 17.1856 8.58722C12.0606 12.0117 8.06607 16.879 5.70726 22.5737C3.34845 28.2683 2.73128 34.5346 3.93379 40.58C5.1363 46.6254 8.10448 52.1785 12.463 56.537C16.8215 60.8955 22.3746 63.8637 28.42 65.0662C34.4654 66.2687 40.7317 65.6516 46.4264 63.2928C52.121 60.934 56.9883 56.9394 60.4128 51.8144C63.8373 46.6893 65.6651 40.6639 65.6651 34.5C65.6518 26.2386 62.3641 18.3193 56.5224 12.4776C50.6807 6.63589 42.7614 3.34819 34.5 3.33496V3.33496Z" fill="#1D2951"></path><path d="M46.2118 50.8571H22.0166C21.7054 50.8571 21.407 50.7335 21.1869 50.5134C20.9669 50.2934 20.8433 49.9949 20.8433 49.6837V30.98C20.8433 30.6688 20.9669 30.3704 21.1869 30.1503C21.407 29.9303 21.7054 29.8066 22.0166 29.8066H46.2118C46.523 29.8066 46.8214 29.9303 47.0415 30.1503C47.2616 30.3704 47.3852 30.6688 47.3852 30.98V49.6837C47.3852 49.9949 47.2616 50.2934 47.0415 50.5134C46.8214 50.7335 46.523 50.8571 46.2118 50.8571ZM23.19 48.5103H45.0384V32.1651H23.19V48.5103Z" fill="#1D2951"></path><path d="M35.2874 40.3867H32.9407V46.3006H35.2874V40.3867Z" fill="#1D2951"></path><path d="M41.8709 30.7436H39.5241V25.5103C39.5249 24.02 38.9586 22.5852 37.94 21.4973C37.4492 20.9758 36.8563 20.5609 36.1982 20.2782C35.5401 19.9956 34.831 19.8514 34.1148 19.8546V19.8546C32.6552 19.8793 31.2646 20.4805 30.2467 21.527C29.2288 22.5734 28.6663 23.9801 28.682 25.4399V30.7318H26.3353V25.4399C26.3165 23.3568 27.1253 21.3515 28.5839 19.8643C30.0425 18.377 32.0318 17.5295 34.1148 17.5078V17.5078C35.1415 17.5061 36.1577 17.7132 37.1018 18.1167C38.0458 18.5201 38.8979 19.1114 39.6062 19.8546C41.0501 21.3728 41.8493 23.3917 41.8357 25.4868L41.8709 30.7436Z" fill="#1D2951"></path><path d="M34.1137 42.6058C33.3358 42.6081 32.5746 42.3795 31.9267 41.949C31.2787 41.5185 30.7731 40.9054 30.4737 40.1874C30.1744 39.4693 30.0949 38.6786 30.2452 37.9153C30.3956 37.152 30.769 36.4505 31.3183 35.8996C31.8676 35.3487 32.568 34.9732 33.3308 34.8205C34.0936 34.6679 34.8846 34.7451 35.6035 35.0422C36.3225 35.3394 36.9371 35.8432 37.3695 36.4899C37.802 37.1366 38.0328 37.897 38.0328 38.675C38.0328 39.7154 37.6203 40.7135 36.8856 41.4503C36.151 42.1872 35.1542 42.6027 34.1137 42.6058ZM34.1137 37.1026C33.7994 37.1003 33.4915 37.1915 33.2293 37.3647C32.967 37.5379 32.7621 37.7851 32.6408 38.0751C32.5194 38.365 32.4871 38.6844 32.5478 38.9928C32.6086 39.3012 32.7597 39.5845 32.9819 39.8067C33.2042 40.029 33.4875 40.1801 33.7958 40.2408C34.1042 40.3016 34.4237 40.2692 34.7136 40.1479C35.0035 40.0265 35.2508 39.8217 35.424 39.5594C35.5971 39.2971 35.6884 38.9892 35.686 38.675C35.686 38.2579 35.5204 37.858 35.2255 37.5631C34.9306 37.2683 34.5307 37.1026 34.1137 37.1026V37.1026Z" fill="#1D2951"></path></svg> 