<?xml version="1.0" encoding="UTF-8"?> <svg xmlns="http://www.w3.org/2000/svg" width="50" height="50" viewBox="0 0 50 50" fill="none"><path d="M49.56 41.608L27.6234 5.22822C27.069 4.30879 26.0736 3.74658 24.9999 3.74658C23.9262 3.74658 22.9308 4.30869 22.3764 5.22822L0.440034 41.608C-0.130474 42.5542 -0.147368 43.7344 0.395991 44.6964C0.939351 45.6585 1.95859 46.2534 3.06347 46.2534H46.9364C48.0413 46.2534 49.0605 45.6584 49.6039 44.6964C50.1473 43.7343 50.1305 42.5542 49.56 41.608ZM25.0163 16.3308C26.2762 16.3308 27.3422 17.0415 27.3422 18.3013C27.3422 22.1453 26.8899 27.6693 26.8899 31.5134C26.8899 32.5148 25.7916 32.9347 25.0163 32.9347C23.9827 32.9347 23.1104 32.5147 23.1104 31.5134C23.1104 27.6693 22.6583 22.1453 22.6583 18.3013C22.6583 17.0415 23.6919 16.3308 25.0163 16.3308ZM25.0486 40.1385C23.6273 40.1385 22.5612 38.9756 22.5612 37.6512C22.5612 36.2944 23.6272 35.1639 25.0486 35.1639C26.373 35.1639 27.5037 36.2944 27.5037 37.6512C27.5037 38.9756 26.373 40.1385 25.0486 40.1385Z" fill="#1D2951"></path></svg> 