<?xml version="1.0" encoding="UTF-8"?> <svg xmlns="http://www.w3.org/2000/svg" width="50" height="50" viewBox="0 0 50 50" fill="none"><path d="M46.9956 2.28857H3.0047C1.34757 2.28857 0 3.63653 0 5.2934V44.7066C0 46.3634 1.34757 47.7113 3.0047 47.7113H46.9957C48.6523 47.7113 49.9999 46.3634 49.9999 44.7066V5.2934C50.0003 3.63666 48.6522 2.28857 46.9956 2.28857ZM37.9361 7.33427C37.9361 6.72155 38.4328 6.22472 39.0454 6.22472H40.1549C40.7679 6.22472 41.2642 6.72142 41.2642 7.33427V8.59171C41.2642 9.20442 40.7675 9.70113 40.1549 9.70113H39.0454C38.4328 9.70113 37.9361 9.20442 37.9361 8.59171V7.33427ZM32.7769 7.33427C32.7769 6.72155 33.2739 6.22472 33.8865 6.22472H34.9958C35.6084 6.22472 36.1053 6.72142 36.1053 7.33427V8.59171C36.1053 9.20442 35.6084 9.70113 34.9958 9.70113H33.8865C33.2739 9.70113 32.7769 9.20442 32.7769 8.59171V7.33427ZM46.3942 44.1055H3.60569V13.034H46.3942V44.1055ZM46.4234 8.59171C46.4234 9.20442 45.9267 9.70113 45.3141 9.70113H44.2045C43.5914 9.70113 43.0951 9.20442 43.0951 8.59171V7.33427C43.0951 6.72155 43.5918 6.22472 44.2045 6.22472H45.3141C45.9268 6.22472 46.4234 6.72142 46.4234 7.33427V8.59171Z" fill="#1D2951"></path><path d="M10.7329 29.7413L18.7755 33.4814C18.9834 33.5776 19.2048 33.6265 19.4336 33.6265C19.7317 33.6265 20.0222 33.5418 20.2748 33.3812C20.727 33.0921 20.9972 32.5996 20.9972 32.0637V32.0226C20.9972 31.4168 20.6421 30.8604 20.0925 30.6052L15.0623 28.268L20.0925 25.9306C20.6421 25.6751 20.9972 25.1189 20.9972 24.5133V24.4726C20.9972 23.9359 20.727 23.4432 20.2748 23.1552C20.0248 22.9954 19.7335 22.9109 19.4327 22.9109C19.2059 22.9109 18.9785 22.9607 18.7749 23.0553L10.7328 26.795C10.1837 27.0505 9.82886 27.607 9.82886 28.2123V28.3241C9.82873 28.9286 10.1833 29.4848 10.7329 29.7413Z" fill="#1D2951"></path><path d="M21.0686 37.3593C21.3619 37.7608 21.8338 38.0006 22.3307 38.0006H22.371C23.0533 38.0006 23.6511 37.5638 23.8591 36.9148L29.1569 20.499C29.3089 20.0252 29.2246 19.5023 28.9312 19.1C28.6378 18.6984 28.166 18.4587 27.6689 18.4587H27.6287C26.9461 18.4587 26.3477 18.8954 26.1397 19.5444L20.8414 35.9615C20.6905 36.4359 20.7755 36.9581 21.0686 37.3593Z" fill="#1D2951"></path><path d="M29.0027 24.5132C29.0027 25.1181 29.3575 25.6745 29.9072 25.9313L34.9374 28.268L29.9072 30.6049C29.3577 30.8604 29.0027 31.4168 29.0027 32.0224V32.0634C29.0027 32.5995 29.2726 33.092 29.7253 33.3812C29.977 33.5415 30.2676 33.6265 30.5661 33.6265C30.7947 33.6265 31.0159 33.5776 31.2252 33.4809L39.2673 29.7409C39.8164 29.4848 40.1712 28.9286 40.1712 28.3239V28.2121C40.1712 27.6067 39.8164 27.0502 39.2668 26.7948L31.2247 23.0551C31.0219 22.9607 30.7947 22.9109 30.5679 22.9109C30.2676 22.9109 29.9759 22.9952 29.7259 23.1547C29.2732 23.4432 29.0031 23.9358 29.0031 24.4725V24.5131H29.0027V24.5132Z" fill="#1D2951"></path></svg> 